<svg width="105" height="27" viewBox="0 0 105 27" fill="none" xmlns="http://www.w3.org/2000/svg">
<rect width="105" height="27" rx="9" fill="#FFD60A"/>
<rect x="51.5" y="0.5" width="53" height="26" rx="8.5" fill="#202020" stroke="#FED60A"/>
<path d="M26.5061 15.13C26.5061 16.054 26.2541 16.7633 25.7501 17.258C25.2555 17.7527 24.5601 18 23.6641 18H22.3201C21.2188 18 20.4348 17.8087 19.9681 17.426C19.5108 17.0433 19.2821 16.3807 19.2821 15.438V8.032H23.4961C24.4481 8.032 25.1621 8.27 25.6381 8.746C26.1235 9.222 26.3661 9.894 26.3661 10.762C26.3661 11.266 26.2355 11.6953 25.9741 12.05C25.7221 12.4047 25.4421 12.6567 25.1341 12.806C26.0488 13.2353 26.5061 14.01 26.5061 15.13ZM23.3421 11.924C24.0608 11.924 24.4201 11.5647 24.4201 10.846C24.4201 10.1273 24.0608 9.768 23.3421 9.768H21.2281V11.924H23.3421ZM24.5601 15.032C24.5601 14.584 24.4808 14.248 24.3221 14.024C24.1635 13.7907 23.8788 13.674 23.4681 13.674H21.2281V15.242C21.2281 15.6247 21.3215 15.8907 21.5081 16.04C21.7041 16.1893 22.0215 16.264 22.4601 16.264H23.4681C24.1961 16.264 24.5601 15.8533 24.5601 15.032ZM32.683 14.388V13.66C32.683 12.9693 32.5803 12.442 32.375 12.078C32.179 11.714 31.7636 11.532 31.129 11.532C30.1023 11.532 29.589 12.2227 29.589 13.604V14.332C29.589 15.816 30.1023 16.558 31.129 16.558C31.7916 16.558 32.2256 16.3107 32.431 15.816C32.599 15.424 32.683 14.948 32.683 14.388ZM34.503 13.968C34.503 15.6947 34.1763 16.852 33.523 17.44C32.9723 17.944 32.1743 18.196 31.129 18.196C29.7943 18.196 28.8936 17.804 28.427 17.02C27.9883 16.3013 27.769 15.284 27.769 13.968C27.769 12.736 27.9883 11.77 28.427 11.07C28.9123 10.286 29.7943 9.894 31.073 9.894C32.361 9.894 33.2523 10.2393 33.747 10.93C34.251 11.6113 34.503 12.624 34.503 13.968ZM40.2845 14.388V13.66C40.2845 12.9693 40.1819 12.442 39.9765 12.078C39.7805 11.714 39.3652 11.532 38.7305 11.532C37.7039 11.532 37.1905 12.2227 37.1905 13.604V14.332C37.1905 15.816 37.7039 16.558 38.7305 16.558C39.3932 16.558 39.8272 16.3107 40.0325 15.816C40.2005 15.424 40.2845 14.948 40.2845 14.388ZM42.1045 13.968C42.1045 15.6947 41.7779 16.852 41.1245 17.44C40.5739 17.944 39.7759 18.196 38.7305 18.196C37.3959 18.196 36.4952 17.804 36.0285 17.02C35.5899 16.3013 35.3705 15.284 35.3705 13.968C35.3705 12.736 35.5899 11.77 36.0285 11.07C36.5139 10.286 37.3959 9.894 38.6745 9.894C39.9625 9.894 40.8539 10.2393 41.3485 10.93C41.8525 11.6113 42.1045 12.624 42.1045 13.968ZM50.4341 18H48.2501L46.1501 15.172L45.3521 16.306V18H43.5321V7.472H45.3521V14.122L47.9001 10.328H49.9581L47.3401 13.912L50.4341 18Z" fill="black"/>
<path d="M65.7982 8.032V16.992C65.7982 17.3 65.7049 17.566 65.5182 17.79C65.3315 18.0047 65.1122 18.112 64.8602 18.112C64.2162 18.112 63.6889 17.7387 63.2782 16.992L59.8342 11.602V18H57.8882V8.032H59.7642L63.8522 14.556V8.032H65.7982ZM72.0033 14.388V13.66C72.0033 12.9693 71.9006 12.442 71.6953 12.078C71.4993 11.714 71.0839 11.532 70.4493 11.532C69.4226 11.532 68.9093 12.2227 68.9093 13.604V14.332C68.9093 15.816 69.4226 16.558 70.4493 16.558C71.1119 16.558 71.5459 16.3107 71.7513 15.816C71.9193 15.424 72.0033 14.948 72.0033 14.388ZM73.8233 13.968C73.8233 15.6947 73.4966 16.852 72.8433 17.44C72.2926 17.944 71.4946 18.196 70.4493 18.196C69.1146 18.196 68.2139 17.804 67.7473 17.02C67.3086 16.3013 67.0893 15.284 67.0893 13.968C67.0893 12.736 67.3086 11.77 67.7473 11.07C68.2326 10.286 69.1146 9.894 70.3933 9.894C71.6813 9.894 72.5726 10.2393 73.0673 10.93C73.5713 11.6113 73.8233 12.624 73.8233 13.968ZM84.8268 10.006L82.6008 18H81.1028L79.5768 13.142L78.0508 18H76.5528L74.3128 10.006H76.2448L77.4208 15.214L78.6388 10.93C78.7788 10.314 79.0962 10.006 79.5908 10.006C79.8242 10.006 80.0108 10.0807 80.1508 10.23C80.2908 10.3793 80.4075 10.6127 80.5008 10.93L81.7328 15.214L82.9088 10.006H84.8268Z" fill="#FFD400"/>
</svg>
