<svg width="31" height="31" viewBox="0 0 31 31" fill="none" xmlns="http://www.w3.org/2000/svg">
<path d="M15.2344 0C12.2213 0 9.2759 0.893481 6.77062 2.56746C4.26534 4.24143 2.31271 6.62071 1.15965 9.40443C0.00660058 12.1882 -0.295091 15.2513 0.292731 18.2065C0.880553 21.1616 2.33149 23.8761 4.46205 26.0067C6.59262 28.1373 9.30712 29.5882 12.2623 30.176C15.2175 30.7638 18.2806 30.4622 21.0643 29.3091C23.848 28.1561 26.2273 26.2034 27.9013 23.6981C29.5753 21.1929 30.4688 18.2475 30.4688 15.2344C30.4643 11.1953 28.8579 7.32298 26.0018 4.46694C23.1458 1.61091 19.2734 0.00443564 15.2344 0ZM15.8438 29.2363V18.2813H20.1094C20.271 18.2813 20.426 18.2171 20.5403 18.1028C20.6546 17.9885 20.7188 17.8335 20.7188 17.6719C20.7188 17.5103 20.6546 17.3553 20.5403 17.241C20.426 17.1267 20.271 17.0625 20.1094 17.0625H15.8438V12.7969C15.8438 11.9888 16.1648 11.2138 16.7362 10.6424C17.3076 10.071 18.0826 9.75 18.8906 9.75H21.3281C21.4897 9.75 21.6447 9.6858 21.759 9.57152C21.8733 9.45724 21.9375 9.30224 21.9375 9.14063C21.9375 8.97901 21.8733 8.82401 21.759 8.70973C21.6447 8.59545 21.4897 8.53125 21.3281 8.53125H18.8906C17.7593 8.53125 16.6743 8.98066 15.8744 9.78062C15.0744 10.5806 14.625 11.6656 14.625 12.7969V17.0625H10.3594C10.1978 17.0625 10.0428 17.1267 9.92849 17.241C9.81421 17.3553 9.75001 17.5103 9.75001 17.6719C9.75001 17.8335 9.81421 17.9885 9.92849 18.1028C10.0428 18.2171 10.1978 18.2813 10.3594 18.2813H14.625V29.2363C10.9641 29.077 7.51113 27.4902 5.0059 24.816C2.50066 22.1417 1.14239 18.5927 1.22207 14.9292C1.30175 11.2656 2.81304 7.779 5.43218 5.21621C8.05132 2.65341 11.57 1.21829 15.2344 1.21829C18.8988 1.21829 22.4174 2.65341 25.0366 5.21621C27.6557 7.779 29.167 11.2656 29.2467 14.9292C29.3264 18.5927 27.9681 22.1417 25.4629 24.816C22.9576 27.4902 19.5047 29.077 15.8438 29.2363Z" fill="#FFCD29"/>
</svg>
