<svg width="31" height="31" viewBox="0 0 31 31" fill="none" xmlns="http://www.w3.org/2000/svg">
<g opacity="0.35">
<path d="M15.5833 30.1667C23.6375 30.1667 30.1667 23.6375 30.1667 15.5833C30.1667 7.52918 23.6375 1 15.5833 1C7.52918 1 1 7.52918 1 15.5833C1 23.6375 7.52918 30.1667 15.5833 30.1667Z" stroke="#636A73" stroke-width="1.5" stroke-linecap="round" stroke-linejoin="round"/>
<path d="M15.5834 15.5833H22.875C22.8747 17.2703 22.2895 18.9049 21.2191 20.2088C20.1486 21.5126 18.6592 22.4049 17.0047 22.7338C15.3501 23.0626 13.6326 22.8075 12.145 22.0121C10.6574 21.2166 9.49161 19.9299 8.84629 18.3713C8.20097 16.8126 8.11605 15.0785 8.60599 13.4642C9.09593 11.85 10.1304 10.4556 11.5332 9.51857C12.936 8.58156 14.6203 8.15992 16.2991 8.32551C17.9779 8.49109 19.5473 9.23364 20.74 10.4267" stroke="#636A73" stroke-width="1.5" stroke-linecap="round" stroke-linejoin="round"/>
</g>
</svg>
