<svg width="31" height="31" viewBox="0 0 31 31" fill="none" xmlns="http://www.w3.org/2000/svg">
<path fill-rule="evenodd" clip-rule="evenodd" d="M15.0062 27.5374C8.10249 27.5201 2.52028 21.9099 2.53758 15.0061C2.55488 8.10242 8.16514 2.52021 15.0689 2.53751C21.9726 2.55481 27.5548 8.16506 27.5375 15.0688C27.5202 21.9725 21.9099 27.5547 15.0062 27.5374ZM15.0282 18.775C14.5309 18.7737 14.0535 18.9701 13.701 19.3208C13.3485 19.6716 13.1497 20.148 13.1485 20.6453L13.1485 20.6578C13.1472 21.155 13.3436 21.6324 13.6943 21.9849C14.045 22.3375 14.5215 22.5362 15.0187 22.5374L15.0312 22.5375C15.5285 22.5387 16.0059 22.3424 16.3584 21.9916C16.711 21.6409 16.9097 21.1645 16.9109 20.6672L16.911 20.6547C16.9122 20.1574 16.7159 19.68 16.3651 19.3275C16.0144 18.975 15.538 18.7762 15.0407 18.775L15.0282 18.775ZM15.0423 13.15C14.545 13.1487 14.0676 13.3451 13.7151 13.6958C13.3626 14.0466 13.1638 14.523 13.1626 15.0203L13.1625 15.0328C13.1613 15.53 13.3576 16.0075 13.7084 16.36C14.0591 16.7125 14.5356 16.9112 15.0328 16.9125L15.0453 16.9125C15.5426 16.9137 16.02 16.7174 16.3725 16.3666C16.7251 16.0159 16.9238 15.5395 16.925 15.0422L16.9251 15.0297C16.9263 14.5324 16.73 14.055 16.3792 13.7025C16.0285 13.35 15.552 13.1513 15.0548 13.15L15.0423 13.15ZM13.1767 9.39529C13.1779 8.89801 13.3767 8.42159 13.7292 8.07084C14.0817 7.72009 14.5591 7.52374 15.0564 7.52499L15.0689 7.52502C15.5661 7.52627 16.0426 7.72501 16.3933 8.07752C16.7441 8.43003 16.9404 8.90744 16.9392 9.40471L16.9391 9.41721C16.9379 9.91449 16.7391 10.3909 16.3866 10.7417C16.0341 11.0924 15.5567 11.2888 15.0594 11.2875L15.0469 11.2875C14.5497 11.2862 14.0732 11.0875 13.7225 10.735C13.3717 10.3825 13.1754 9.90506 13.1766 9.40779L13.1767 9.39529Z" fill="#FFD60A"/>
</svg>
