<svg width="25" height="25" viewBox="0 0 25 25" fill="none" xmlns="http://www.w3.org/2000/svg">
<path d="M22.6562 21.5515L16.7562 15.6515C18.1741 13.9494 18.8811 11.7663 18.7302 9.55616C18.5793 7.34606 17.5822 5.27919 15.9463 3.78554C14.3103 2.29189 12.1615 1.48645 9.94684 1.53677C7.73217 1.58709 5.62215 2.4893 4.05573 4.05572C2.48932 5.62213 1.58711 7.73215 1.53678 9.94683C1.48646 12.1615 2.29191 14.3103 3.78556 15.9463C5.27921 17.5822 7.34607 18.5793 9.55617 18.7302C11.7663 18.8811 13.9495 18.174 15.6516 16.7562L21.5516 22.6562L22.6562 21.5515ZM3.125 10.1562C3.125 8.76558 3.53737 7.40616 4.30998 6.24988C5.08258 5.0936 6.18071 4.19238 7.46551 3.66021C8.7503 3.12803 10.164 2.98878 11.528 3.26009C12.8919 3.53139 14.1448 4.20105 15.1281 5.18439C16.1114 6.16773 16.7811 7.42058 17.0524 8.7845C17.3237 10.1484 17.1845 11.5622 16.6523 12.847C16.1201 14.1318 15.2189 15.2299 14.0626 16.0025C12.9063 16.7751 11.5469 17.1875 10.1562 17.1875C8.29208 17.1854 6.50486 16.444 5.18669 15.1258C3.86852 13.8076 3.12707 12.0204 3.125 10.1562Z" fill="#FED60A"/>
</svg>
